<svg xmlns="http://www.w3.org/2000/svg" viewBox="0 0 19.9609375 27.97265625" width="19.9609375" height="27.97265625">
  <path
    d="M3.3182 27.9729H16.6482C18.8382 27.9729 19.9582 26.8429 19.9582 24.4429V14.2829C19.9582 12.1729 19.0582 11.0329 17.2782 10.8329V7.6829C17.2782 2.8029 13.9882 0.0029 9.9782 0.0029C5.9782 0.0029 2.6982 2.8029 2.6982 7.6829V10.8329C0.9182 11.0329 -0.0018 12.1729 -0.0018 14.2829V24.4429C-0.0018 26.8429 1.1182 27.9729 3.3182 27.9729ZM5.9482 7.5229C5.9482 4.7429 7.7382 3.1329 9.9782 3.1329C12.2182 3.1329 14.0382 4.7429 14.0382 7.5229V10.7829H5.9482Z"/>
</svg>
