<svg xmlns="http://www.w3.org/2000/svg" viewBox="0 0 27.494140625 27.7265625" width="27.494140625" height="27.7265625">
  <path
    d="M-0.0045 11.5244C-0.0045 17.8844 5.1555 23.0344 11.5155 23.0344C13.6355 23.0344 15.5855 22.4444 17.2555 21.4344L22.7455 26.9344C23.2855 27.4644 23.9955 27.7244 24.7355 27.7244C26.3155 27.7244 27.4955 26.5244 27.4955 24.9644C27.4955 24.2244 27.2355 23.5444 26.7055 22.9944L21.2555 17.5444C22.3855 15.8144 23.0355 13.7544 23.0355 11.5244C23.0355 5.1544 17.8855 0.0044 11.5155 0.0044C5.1555 0.0044 -0.0045 5.1544 -0.0045 11.5244ZM3.7355 11.5244C3.7355 7.2344 7.2355 3.7444 11.5155 3.7444C15.8055 3.7444 19.2955 7.2344 19.2955 11.5244C19.2955 15.8044 15.8055 19.3044 11.5155 19.3044C7.2355 19.3044 3.7355 15.8044 3.7355 11.5244Z"/>
</svg>
