<svg xmlns="http://www.w3.org/2000/svg" viewBox="0 0 26.578125 32.744140625" width="26.578125" height="32.744140625">
  <path
    d="M18.2937 30.9963V29.3663H18.7337C23.3637 29.3663 26.5737 26.7263 26.5737 22.5463C26.5737 18.2963 23.4637 15.5263 17.5237 14.9263L9.5337 14.0963C5.3337 13.6563 3.5237 12.2863 3.5237 10.1963C3.5237 8.1163 5.1637 6.9063 8.1437 6.9063H16.7737C17.5137 8.7863 19.3437 10.1463 21.4937 10.1463C24.3037 10.1463 26.5737 7.8763 26.5737 5.0563C26.5737 2.2663 24.3037 -0.0037 21.4937 -0.0037C19.3037 -0.0037 17.4337 1.4063 16.7237 3.3763H8.1437C3.2037 3.3763 0.0037 6.0163 0.0037 10.1963C0.0037 14.4463 3.1037 17.2163 9.0237 17.8163L17.0337 18.6463C21.2437 19.0863 23.0537 20.4563 23.0537 22.5463C23.0537 24.6263 21.4137 25.8363 18.7337 25.8363H18.2937V24.1963C18.2937 23.1063 17.3537 22.7363 16.5737 23.3563L12.2337 26.7963C11.6637 27.2463 11.6737 27.9463 12.2337 28.3863L16.5837 31.8263C17.3537 32.4263 18.2937 32.0563 18.2937 30.9963ZM21.4937 6.9863C20.4237 6.9863 19.5937 6.1363 19.5937 5.0563C19.5937 3.9763 20.4237 3.1563 21.4937 3.1563C22.6037 3.1563 23.4237 3.9763 23.4237 5.0563C23.4237 6.1563 22.5837 6.9863 21.4937 6.9863ZM5.0737 32.7463C7.8937 32.7463 10.1537 30.4763 10.1537 27.6563C10.1537 24.8663 7.8937 22.5963 5.0737 22.5963C2.2837 22.5963 0.0137 24.8663 0.0137 27.6563C0.0137 30.4763 2.2837 32.7463 5.0737 32.7463Z"/>
</svg>
