<svg xmlns="http://www.w3.org/2000/svg" viewBox="0 0 28.779296875 32.1083984375" width="28.779296875"
     height="32.1083984375">
  <path
    d="M1.8837 25.4453L12.4937 31.5853C13.7037 32.2853 15.0837 32.2853 16.2837 31.5853L26.8937 25.4453C28.0637 24.7753 28.7837 23.5553 28.7837 22.1753V9.9153C28.7837 8.5453 28.0637 7.3353 26.8937 6.6653L16.2837 0.5253C15.0837 -0.1747 13.7037 -0.1747 12.4937 0.5253L1.8837 6.6653C0.7137 7.3353 0.0037 8.5453 0.0037 9.9153V22.1753C0.0037 23.5553 0.7137 24.7753 1.8837 25.4453ZM10.5837 23.1953C9.7037 23.8453 8.7337 23.1953 9.0937 22.1153L10.5937 17.6353L6.7537 14.8753C5.9737 14.3153 6.1637 13.1053 7.3237 13.1153L12.0437 13.1653L13.4837 8.6553C13.8237 7.5953 14.9537 7.5953 15.3037 8.6553L16.7337 13.1653L21.4537 13.1153C22.6437 13.1053 22.7737 14.3353 22.0137 14.8753L18.1837 17.6253L19.6737 22.1153C20.0437 23.2353 19.0837 23.8453 18.1937 23.1953L14.3837 20.4053Z"/>
</svg>
