<svg xmlns="http://www.w3.org/2000/svg" viewBox="0 0 28.779296875 32.1083984375" width="28.779296875"
     height="32.1083984375">
  <path
    d="M1.8837 25.4453L12.4937 31.5853C13.7037 32.2853 15.0837 32.2853 16.2837 31.5853L26.8937 25.4453C28.0637 24.7753 28.7837 23.5553 28.7837 22.1753V9.9153C28.7837 8.5453 28.0637 7.3353 26.8937 6.6653L16.2837 0.5253C15.0837 -0.1747 13.7037 -0.1747 12.4937 0.5253L1.8837 6.6653C0.7137 7.3353 0.0037 8.5453 0.0037 9.9153V22.1753C0.0037 23.5553 0.7137 24.7753 1.8837 25.4453ZM3.4437 21.5353V10.5753C3.4437 10.0553 3.7237 9.6053 4.1737 9.3253L13.6737 3.8353C14.1237 3.5753 14.6537 3.5753 15.1037 3.8353L24.6137 9.3253C25.0637 9.6053 25.3237 10.0553 25.3237 10.5753V21.5353C25.3237 22.0553 25.0637 22.5053 24.6137 22.7653L15.1037 28.2753C14.6537 28.5353 14.1237 28.5353 13.6737 28.2753L4.1737 22.7653C3.7237 22.5053 3.4437 22.0553 3.4437 21.5353ZM10.7737 22.8453L14.3837 20.1953L18.0037 22.8453C18.8437 23.4653 19.7537 22.8853 19.4137 21.8253L17.9937 17.5753L21.6337 14.9653C22.3537 14.4253 22.2337 13.2653 21.1137 13.2753L16.6237 13.3353L15.2437 9.0453C14.9337 8.0453 13.8337 8.0453 13.5237 9.0453L12.1537 13.3353L7.6737 13.2753C6.5737 13.2653 6.3937 14.4153 7.1337 14.9653L10.7837 17.5753L9.3637 21.8253C9.0237 22.8453 9.9437 23.4653 10.7737 22.8453Z"/>
</svg>
