<svg xmlns="http://www.w3.org/2000/svg" viewBox="0 0 27.822265625 31.568359375">
  <path
    d="M7.5982 31.572H20.2182C22.5582 31.572 23.9982 30.272 24.1082 27.932L25.0082 8.542H26.2782C27.1682 8.542 27.8182 7.912 27.8182 7.042C27.8182 6.182 27.1482 5.552 26.2782 5.552H20.4782V3.572C20.4782 1.282 19.0482 0.002 16.4982 0.002H11.2882C8.7482 0.002 7.3282 1.282 7.3282 3.572V5.552H1.5282C0.6682 5.552 -0.0018 6.182 -0.0018 7.042C-0.0018 7.912 0.6682 8.542 1.5282 8.542H2.8182L3.7182 27.932C3.8282 30.282 5.2482 31.572 7.5982 31.572ZM10.4682 3.682C10.4682 3.092 10.8782 2.732 11.5282 2.732H16.2682C16.9282 2.732 17.3382 3.092 17.3382 3.682V5.552H10.4682ZM9.6782 27.182C8.9982 27.182 8.5482 26.742 8.5082 26.062L8.0782 11.522C8.0682 10.842 8.5182 10.392 9.2282 10.392C9.9082 10.392 10.3782 10.832 10.4082 11.512L10.8282 26.042C10.8582 26.732 10.3882 27.182 9.6782 27.182ZM13.9082 27.182C13.2182 27.182 12.7582 26.742 12.7582 26.072V11.512C12.7582 10.832 13.2182 10.392 13.9082 10.392C14.5982 10.392 15.0682 10.832 15.0682 11.512V26.072C15.0682 26.742 14.5982 27.182 13.9082 27.182ZM18.1382 27.182C17.4182 27.182 16.9682 26.732 16.9782 26.042L17.4182 11.512C17.4482 10.832 17.9082 10.392 18.5982 10.392C19.3082 10.392 19.7582 10.842 19.7282 11.522L19.3082 26.062C19.2782 26.742 18.8282 27.182 18.1382 27.182Z"/>
</svg>
