<svg xmlns="http://www.w3.org/2000/svg" viewBox="0 0 22.625299684243775 22.625389422365657" width="22.625299684243775"
     height="22.625389422365657">
  <path
    d="M22.0451 19.1159L14.2351 11.3259L22.0451 3.5159C22.8251 2.7359 22.8251 1.3959 22.0151 0.6059C21.2151 -0.1941 19.8851 -0.2041 19.1051 0.5759L11.3151 8.3859L3.5051 0.5759C2.7551 -0.1741 1.3851 -0.2041 0.5951 0.6059C-0.2049 1.3959 -0.1749 2.7659 0.5651 3.5159L8.3751 11.3259L0.5651 19.1259C-0.1849 19.8759 -0.2049 21.2459 0.5951 22.0259C1.3851 22.8159 2.7651 22.7959 3.5051 22.0559L11.3151 14.2459L19.1051 22.0559C19.8851 22.8159 21.2251 22.8159 22.0151 22.0259C22.8051 21.2159 22.8251 19.8959 22.0451 19.1159Z"/>
</svg>
