<svg xmlns="http://www.w3.org/2000/svg" viewBox="0 0 32.607421875 28.35546875" width="32.607421875" height="28.35546875"><path d="M6.2637 12.5115C9.6937 12.5115 12.5137 9.6815 12.5137 6.2515C12.5137 2.8115 9.6937 0.0015 6.2637 0.0015C2.8137 0.0015 0.0037 2.8115 0.0037 6.2515C0.0037 9.6815 2.8137 12.5115 6.2637 12.5115ZM5.5137 9.6415C5.1837 9.6415 4.9237 9.4615 4.7037 9.2015L3.1737 7.3815C3.0037 7.1815 2.9437 7.0115 2.9437 6.7815C2.9437 6.2915 3.3037 5.9215 3.7737 5.9215C4.0737 5.9215 4.2537 6.0415 4.4537 6.2915L5.4937 7.5215L7.9137 3.6515C8.1237 3.3215 8.3637 3.1715 8.6837 3.1715C9.1637 3.1715 9.5537 3.5315 9.5537 3.9815C9.5537 4.1715 9.5037 4.3515 9.3537 4.5815L6.3337 9.1715C6.1437 9.4615 5.8337 9.6415 5.5137 9.6415ZM17.3737 7.9015H30.9937C31.8937 7.9015 32.6037 7.1415 32.6037 6.2615C32.6037 5.3415 31.8937 4.6115 30.9937 4.6115H17.3737C16.4737 4.6115 15.7637 5.3615 15.7637 6.2615C15.7637 7.1215 16.4737 7.9015 17.3737 7.9015ZM6.2637 28.3515C9.6937 28.3515 12.5137 25.5215 12.5137 22.0915C12.5137 18.6615 9.6937 15.8415 6.2637 15.8415C2.8137 15.8415 0.0037 18.6615 0.0037 22.0915C0.0037 25.5215 2.8137 28.3515 6.2637 28.3515ZM6.2637 25.4615C4.4337 25.4615 2.8937 23.9215 2.8937 22.0915C2.8937 20.2615 4.4337 18.7315 6.2637 18.7315C8.0937 18.7315 9.6237 20.2615 9.6237 22.0915C9.6237 23.9215 8.0937 25.4615 6.2637 25.4615ZM17.3737 23.7315H30.9937C31.8937 23.7315 32.6037 22.9815 32.6037 22.0915C32.6037 21.1915 31.8937 20.4515 30.9937 20.4515H17.3737C16.4737 20.4515 15.7637 21.2015 15.7637 22.0915C15.7637 22.9515 16.4737 23.7315 17.3737 23.7315Z"/></svg>