<svg xmlns="http://www.w3.org/2000/svg" viewBox="0 0 28.875 28.875" width="28.875" height="28.875"><path d="M14.4327 28.8786C22.4127 28.8786 28.8727 22.4086 28.8727 14.4386C28.8727 6.4686 22.4127 -0.0014 14.4327 -0.0014C6.4627 -0.0014 0.0027 6.4686 0.0027 14.4386C0.0027 22.4086 6.4627 28.8786 14.4327 28.8786ZM7.9427 16.5286C7.2027 16.5286 6.6327 15.9386 6.6327 15.1986C6.6327 14.4686 7.2027 13.8886 7.9427 13.8886H13.1127V6.6986C13.1127 5.9586 13.7027 5.3886 14.4327 5.3886C15.1727 5.3886 15.7527 5.9586 15.7527 6.6986V15.1986C15.7527 15.9386 15.1727 16.5286 14.4327 16.5286Z"/></svg>