<svg xmlns="http://www.w3.org/2000/svg" viewBox="0 0 28.875 28.875" width="28.875" height="28.875"><path d="M14.4327 28.8786C22.4127 28.8786 28.8727 22.4086 28.8727 14.4386C28.8727 6.4686 22.4127 -0.0014 14.4327 -0.0014C6.4627 -0.0014 0.0027 6.4686 0.0027 14.4386C0.0027 22.4086 6.4627 28.8786 14.4327 28.8786ZM14.4327 25.2786C8.4527 25.2786 3.5927 20.4286 3.5927 14.4386C3.5927 8.4386 8.4527 3.5986 14.4327 3.5986C20.4427 3.5986 25.2827 8.4386 25.2827 14.4386C25.2827 20.4286 20.4427 25.2786 14.4327 25.2786ZM7.9427 16.5286H14.4327C15.1727 16.5286 15.7527 15.9386 15.7527 15.1986V6.6986C15.7527 5.9586 15.1727 5.3886 14.4327 5.3886C13.7027 5.3886 13.1127 5.9586 13.1127 6.6986V13.8886H7.9427C7.2027 13.8886 6.6327 14.4686 6.6327 15.1986C6.6327 15.9386 7.2027 16.5286 7.9427 16.5286Z"/></svg>