<svg xmlns="http://www.w3.org/2000/svg" viewBox="0 0 28.875 28.875" width="28.875" height="28.875">
  <path
    d="M14.4327 28.8749C22.4127 28.8749 28.8727 22.4049 28.8727 14.4349C28.8727 6.4649 22.4127 0.0049 14.4327 0.0049C6.4627 0.0049 0.0027 6.4649 0.0027 14.4349C0.0027 22.4049 6.4627 28.8749 14.4327 28.8749ZM11.5227 8.9449C11.5227 7.3049 12.8427 5.9749 14.4927 5.9749C16.1427 5.9749 17.4627 7.3049 17.4627 8.9449C17.4627 10.2649 16.5727 11.4049 15.3627 11.7849V16.0549C15.3627 17.7149 14.8927 18.9449 14.4927 18.9449C14.0927 18.9449 13.6027 17.7049 13.6027 16.0549V11.7849C12.4027 11.4049 11.5227 10.2649 11.5227 8.9449ZM13.6727 9.1149C14.2027 9.1149 14.6527 8.6649 14.6527 8.1049C14.6527 7.5749 14.2027 7.1349 13.6727 7.1349C13.1527 7.1349 12.6827 7.5749 12.6827 8.1049C12.6827 8.6649 13.1527 9.1149 13.6727 9.1149ZM14.4827 21.8849C10.0627 21.8849 7.2327 20.3349 7.2327 18.4049C7.2327 16.4649 9.9927 15.1349 12.4727 14.9949V16.5949C10.9127 16.6949 9.1327 17.3949 9.1327 18.3049C9.1327 19.4249 11.3327 20.2349 14.4827 20.2349C17.6127 20.2349 19.8227 19.4249 19.8227 18.3049C19.8227 17.3949 18.0327 16.6949 16.4727 16.5949V14.9949C18.9627 15.1349 21.7127 16.4649 21.7127 18.4049C21.7127 20.3349 18.9127 21.8849 14.4827 21.8849Z"/>
</svg>
