<svg xmlns="http://www.w3.org/2000/svg" viewBox="0 0 28.875 28.875" width="28.875" height="28.875"><path d="M14.4327 28.8786C22.4127 28.8786 28.8727 22.4086 28.8727 14.4386C28.8727 6.4686 22.4127 -0.0014 14.4327 -0.0014C6.4627 -0.0014 0.0027 6.4686 0.0027 14.4386C0.0027 22.4086 6.4627 28.8786 14.4327 28.8786ZM14.4327 19.2686C10.9327 19.2686 8.2127 20.4786 6.6827 22.0086C4.7727 20.0586 3.5927 17.3886 3.5927 14.4386C3.5927 8.4386 8.4527 3.5986 14.4327 3.5986C20.4427 3.5986 25.2827 8.4386 25.2827 14.4386C25.2827 17.3886 24.1027 20.0586 22.2027 22.0086C20.6627 20.4786 17.9327 19.2686 14.4327 19.2686ZM14.4327 17.1486C17.1127 17.1586 19.1827 14.8786 19.1827 11.9486C19.1827 9.1986 17.0927 6.8586 14.4327 6.8586C11.7827 6.8586 9.6827 9.1986 9.7027 11.9486C9.7027 14.8786 11.7727 17.1286 14.4327 17.1486Z"/></svg>