<svg xmlns="http://www.w3.org/2000/svg" viewBox="0 0 26.755859375 26.71484375" width="26.755859375"
     height="26.71484375">
  <path
    d="M7.3255 19.2885C11.5355 23.4985 16.5655 26.7185 20.6155 26.7185C22.5355 26.7185 24.1855 25.9485 25.2755 24.7285C26.3155 23.5685 26.7555 22.6585 26.7555 21.8885C26.7555 21.2585 26.3755 20.7085 25.4455 20.0585L21.9455 17.5585C21.0855 16.9385 20.6855 16.8285 20.1755 16.8285C19.7255 16.8285 19.3555 16.8985 18.6055 17.3085L16.3555 18.5485C16.0755 18.6985 15.9555 18.7285 15.7455 18.7285C15.4855 18.7285 15.3155 18.6585 15.0355 18.5385C13.9455 18.0485 12.4155 16.8485 11.0655 15.5085C9.7055 14.1385 8.6855 12.7985 8.1055 11.6585C8.0355 11.5285 7.9555 11.3185 7.9555 11.0785C7.9555 10.8985 8.0355 10.7085 8.1655 10.5185L9.4755 8.2285C9.8255 7.6185 9.9555 7.2685 9.9555 6.7785C9.9555 6.2185 9.7655 5.6185 9.2155 4.8685L6.8255 1.5185C6.1355 0.5485 5.5355 -0.0015 4.7555 -0.0015C3.8155 -0.0015 2.6555 0.7385 1.8155 1.5285C0.6255 2.6785 -0.0045 4.2885 -0.0045 6.0885C-0.0045 10.1685 3.1355 15.1085 7.3255 19.2885Z"/>
</svg>
